<svg preserveAspectRatio="none" width="100%" height="100%" overflow="visible" style="display: block;" viewBox="0 0 7.99787 13.0002" fill="none" xmlns="http://www.w3.org/2000/svg">
<path id="Vector" d="M6.63982 13.0002C6.51023 13.0002 6.39088 12.9515 6.30222 12.8637L0.136832 6.87073C-0.0439015 6.69523 -0.0473116 6.41573 0.136832 6.23698L6.29881 0.143226C6.38747 0.0554764 6.50682 0.00672642 6.63641 0.00347642C6.76258 -0.0160236 6.88534 0.0489764 6.97741 0.136726L7.85721 0.975226C8.04476 1.15398 8.04476 1.43998 7.85721 1.61873L2.73871 6.49698L7.85721 11.385C8.04135 11.5637 8.04135 11.8497 7.85721 12.0252L6.974 12.867C6.88534 12.9515 6.76599 13.0002 6.63641 13.0002H6.63982ZM6.63982 0.464976L0.481248 6.55548L6.64323 12.542L7.51961 11.7002L2.40111 6.81548C2.21697 6.63673 2.21697 6.35073 2.40111 6.17198L7.51961 1.29373L6.64323 0.461726L6.63982 0.464976Z" fill="var(--fill-0, white)"/>
</svg>
